<svg width="71" height="56" viewBox="0 0 71 56" fill="none" xmlns="http://www.w3.org/2000/svg">
<path d="M33.3465 0.0750625C32.2965 -0.220245 31.2137 0.381308 30.9074 1.43129L30.4371 3.09376C29.5293 3.02814 28.5997 3.09376 27.6809 3.30157C26.8825 3.48751 26.1169 3.68438 25.3732 3.90313L24.7716 2.51409C24.345 1.51879 23.1857 1.04848 22.1904 1.47504C21.1951 1.9016 20.7248 3.06095 21.1513 4.05625L21.6326 5.19373C19.817 5.92653 18.1655 6.76871 16.667 7.68744L16.0764 6.77964C15.4749 5.87185 14.2499 5.63122 13.3421 6.23278C12.4343 6.83433 12.1937 8.05931 12.7952 8.96711L13.4515 9.95147C11.9531 11.1546 10.6625 12.4452 9.53591 13.7686L8.44217 12.8936C7.58906 12.2155 6.35314 12.3467 5.67503 13.1999C4.99691 14.053 5.12816 15.2889 5.98127 15.967L7.20626 16.9514C7.00938 17.2576 6.82345 17.5748 6.64845 17.881C5.92659 19.1279 5.35785 20.3529 4.89848 21.4903L4.02349 21.1404C3.01726 20.7357 1.86884 21.2279 1.46416 22.2341C1.05948 23.2403 1.55166 24.3887 2.55789 24.7934L3.69537 25.2528C3.6735 25.3403 3.65162 25.4168 3.64069 25.5043C3.40007 26.5215 3.26882 27.3965 3.19226 28.0637C3.14851 28.4027 3.12663 28.6871 3.10476 28.9168C3.09382 29.0371 3.09382 29.1355 3.08288 29.223L3.07195 29.3433V29.4308C3.07195 29.4308 3.07195 29.4418 6.25471 29.5402H6.24377L3.06101 29.4527C3.05007 29.7918 3.06101 30.1199 3.08288 30.448L1.42041 30.9183C0.381363 31.2136 -0.22019 32.3074 0.0751183 33.3464C0.370426 34.3855 1.46416 34.9979 2.51414 34.7026L4.22036 34.2105C5.0516 35.6979 6.28752 36.9448 7.78593 37.776L7.29375 39.4823C6.99845 40.5322 7.6 41.615 8.64998 41.9213C9.69997 42.2275 10.7828 41.615 11.089 40.565L11.5593 38.9026C11.6906 38.9135 11.8218 38.9244 11.9531 38.9244C13.6593 38.9791 15.2671 38.5635 16.6561 37.8088L17.6405 38.7932C18.4061 39.5588 19.6529 39.5588 20.4295 38.7932C21.206 38.0276 21.1951 36.7807 20.4295 36.0042L19.642 35.2167C20.6592 33.8386 21.3045 32.1761 21.4248 30.3496L22.2013 30.6777C23.1966 31.1043 24.356 30.6449 24.7825 29.6387C25.2091 28.6324 24.7497 27.484 23.7435 27.0574L22.8029 26.6528C23.5029 25.57 24.695 24.2028 26.8388 23.0106L26.9809 23.4919C27.2762 24.5419 28.37 25.1434 29.42 24.8481C30.4699 24.5528 31.0715 23.4591 30.7762 22.4091L30.5246 21.5232C30.9403 21.4028 31.3668 21.2935 31.8262 21.1841C33.0949 20.8888 34.2433 20.3419 35.2277 19.6091L36.0152 20.3966C36.7808 21.1622 38.0276 21.1622 38.8042 20.3966C39.5807 19.631 39.5698 18.3841 38.8042 17.6076L37.8198 16.6232C38.6511 15.1029 39.0557 13.3311 38.9245 11.5264L40.587 11.0561C41.637 10.7608 42.2385 9.6671 41.9432 8.61712C41.6479 7.56713 40.5323 6.99839 39.4823 7.2937L37.7761 7.78588C36.9339 6.26559 35.6871 5.04061 34.2105 4.22031L34.7027 2.51409C34.998 1.4641 34.3965 0.381308 33.3465 0.0750625ZM12.2484 29.748L6.99845 29.584C8.27811 29.6277 9.98434 29.6824 12.2484 29.759V29.748ZM13.9983 20.9982C14.9266 20.9982 15.8168 21.3669 16.4732 22.0233C17.1295 22.6796 17.4983 23.5699 17.4983 24.4981C17.4983 25.4264 17.1295 26.3166 16.4732 26.9729C15.8168 27.6293 14.9266 27.9981 13.9983 27.9981C13.0701 27.9981 12.1799 27.6293 11.5235 26.9729C10.8671 26.3166 10.4984 25.4264 10.4984 24.4981C10.4984 23.5699 10.8671 22.6796 11.5235 22.0233C12.1799 21.3669 13.0701 20.9982 13.9983 20.9982ZM20.9982 15.7483C20.9982 15.2841 21.1826 14.839 21.5108 14.5108C21.839 14.1827 22.2841 13.9983 22.7482 13.9983C23.2123 13.9983 23.6574 14.1827 23.9856 14.5108C24.3138 14.839 24.4982 15.2841 24.4982 15.7483C24.4982 16.2124 24.3138 16.6575 23.9856 16.9857C23.6574 17.3139 23.2123 17.4982 22.7482 17.4982C22.2841 17.4982 21.839 17.3139 21.5108 16.9857C21.1826 16.6575 20.9982 16.2124 20.9982 15.7483ZM35.2933 53.482C34.998 54.532 35.5996 55.6148 36.6495 55.9211C37.6995 56.2273 38.7823 55.6148 39.0776 54.5648L39.5479 52.9024C40.4557 52.968 41.3854 52.9023 42.3041 52.6945C43.1026 52.5086 43.8682 52.3117 44.6119 52.093L45.2135 53.482C45.64 54.4773 46.7994 54.9476 47.7947 54.5211C48.79 54.0945 49.2603 52.9352 48.8337 51.9399L48.3525 50.8024C50.1681 50.0696 51.8196 49.2274 53.318 48.3087L53.9196 49.2165C54.5211 50.1243 55.7461 50.3649 56.6539 49.7633C57.5617 49.1618 57.8023 47.9368 57.2008 47.029L56.5445 46.0446C58.0429 44.8415 59.3336 43.5509 60.4601 42.2275L61.5538 43.1025C62.4069 43.7806 63.6429 43.6494 64.321 42.7963C64.9991 41.9431 64.8678 40.7072 64.0147 40.0291L62.7897 39.0448C62.9866 38.7385 63.1726 38.4213 63.3476 38.1151C64.0694 36.8682 64.6382 35.6432 65.0975 34.5058L65.9725 34.8558C66.9788 35.2604 68.1272 34.7683 68.5318 33.762C68.9365 32.7558 68.4443 31.6074 67.4381 31.2027L66.3006 30.7433C66.3225 30.6558 66.3444 30.5793 66.3553 30.4918C66.5959 29.4746 66.7272 28.5996 66.8037 27.9324C66.8475 27.5934 66.8694 27.309 66.8912 27.0793C66.9022 26.959 66.9022 26.8606 66.9131 26.7731L66.9241 26.6528V26.5653C66.9241 26.5653 66.9241 26.5543 63.7413 26.4559H63.7522L66.935 26.5543C66.9459 26.2153 66.935 25.8872 66.9131 25.559L68.5756 25.0887C69.6256 24.7934 70.2271 23.6997 69.9318 22.6497C69.6365 21.5997 68.5428 20.9982 67.4928 21.2935L65.7866 21.7857C64.9553 20.2982 63.7194 19.0513 62.221 18.2201L62.7132 16.5139C63.0085 15.4639 62.4069 14.3811 61.357 14.0748C60.307 13.7686 59.2242 14.3811 58.9179 15.4311L58.4476 17.0935C58.3164 17.0826 58.1851 17.0717 58.0539 17.0717C56.3477 17.017 54.7399 17.4326 53.3508 18.1873L52.3665 17.2029C51.6009 16.4373 50.354 16.4373 49.5775 17.2029C48.8009 17.9685 48.8118 19.2154 49.5775 19.9919L50.3649 20.7794C49.3478 22.1575 48.7025 23.82 48.5822 25.6465L47.8056 25.3184C46.8103 24.8919 45.651 25.3512 45.2244 26.3575C44.7978 27.3637 45.2572 28.5121 46.2635 28.9387L47.2041 29.3433C46.5041 30.4261 45.3119 31.7933 43.1682 32.9855L43.026 32.5042C42.7307 31.4543 41.637 30.8527 40.587 31.148C39.537 31.4433 38.9354 32.537 39.2308 33.587L39.4823 34.473C39.0667 34.5933 38.6401 34.7026 38.1808 34.812C36.912 35.1073 35.7636 35.6542 34.7793 36.387L33.9918 35.5995C33.2262 34.8339 31.9793 34.8339 31.2027 35.5995C30.4262 36.3651 30.4371 37.612 31.2027 38.3885L32.1871 39.3729C31.3559 40.8932 30.9512 42.665 31.0824 44.4697L29.42 44.94C28.37 45.2353 27.7684 46.329 28.0637 47.3681C28.359 48.4071 29.4528 49.0196 30.5028 48.7243L32.209 48.2321C33.0512 49.7524 34.298 50.9774 35.7746 51.7977L35.2933 53.482ZM62.9976 26.4121C61.7179 26.3684 60.0117 26.3137 57.7476 26.2371L62.9976 26.4012V26.4121ZM48.9978 41.9978C48.9978 42.9261 48.629 43.8163 47.9727 44.4727C47.3163 45.129 46.4261 45.4978 45.4978 45.4978C44.5696 45.4978 43.6794 45.129 43.023 44.4727C42.3666 43.8163 41.9979 42.9261 41.9979 41.9978C41.9979 41.0696 42.3666 40.1794 43.023 39.523C43.6794 38.8666 44.5696 38.4979 45.4978 38.4979C46.4261 38.4979 47.3163 38.8666 47.9727 39.523C48.629 40.1794 48.9978 41.0696 48.9978 41.9978Z" fill="#0095DA"/>
</svg>
