<svg width="70" height="56" viewBox="0 0 70 56" fill="none" xmlns="http://www.w3.org/2000/svg">
<path d="M40.6505 0C42.7879 9.00419e-05 44.8744 0.65255 46.6311 1.87018C48.3879 3.08782 49.7311 4.81261 50.4814 6.81407L58.5098 28.2222C61.8506 28.8318 64.856 30.6347 66.9664 33.2952C69.0769 35.9556 70.1486 39.2924 69.982 42.6842C69.8154 46.0761 68.4219 49.2918 66.0609 51.7326C63.6999 54.1735 60.5323 55.6732 57.1479 55.9525C53.7635 56.2318 50.393 55.2717 47.6637 53.2509C44.9345 51.2302 43.0327 48.2864 42.3123 44.9678C41.5919 41.6492 42.1021 38.1819 43.7478 35.2114C45.3936 32.2409 48.0627 29.9697 51.2583 28.8207L49.6379 24.4984L25.2375 33.6469C27.0984 36.1523 28.0687 39.2078 27.9943 42.3279C27.9198 45.4479 26.8049 48.4536 24.8267 50.8675C22.8484 53.2814 20.1203 54.965 17.0756 55.6509C14.031 56.3368 10.8445 55.9856 8.02226 54.6531C5.20006 53.3206 2.90405 51.0833 1.49898 48.2965C0.093907 45.5097 -0.339641 42.3334 0.267209 39.272C0.874059 36.2106 2.4865 33.4398 4.84838 31.3997C7.21026 29.3597 10.1861 28.1674 13.3032 28.0122L14.0802 27.9982L10.1919 20.9987H7.00361C6.07541 20.9987 5.18523 20.6299 4.5289 19.9736C3.87256 19.3173 3.50384 18.4271 3.50384 17.4989C3.50384 16.5707 3.87256 15.6805 4.5289 15.0242C5.18523 14.3678 6.07541 13.9991 7.00361 13.9991H21.0027C21.9309 13.9991 22.8211 14.3678 23.4774 15.0242C24.1338 15.6805 24.5025 16.5707 24.5025 17.4989C24.5025 18.4271 24.1338 19.3173 23.4774 19.9736C22.8211 20.6299 21.9309 20.9987 21.0027 20.9987H18.2029L21.7937 27.4628L47.1811 17.9434L43.9263 9.27091C43.6763 8.60395 43.2287 8.02914 42.6433 7.62328C42.058 7.21742 41.3628 6.99982 40.6505 6.99956H31.5021C30.5739 6.99956 29.6837 6.63083 29.0273 5.97449C28.371 5.31816 28.0023 4.42798 28.0023 3.49978C28.0023 2.57158 28.371 1.6814 29.0273 1.02506C29.6837 0.368726 30.5739 0 31.5021 0H40.6505ZM56.585 35.0223L55.934 34.9978C54.1059 35.0141 52.3567 35.745 51.0605 37.0343C49.7643 38.3235 49.0239 40.0687 48.9977 41.8967C48.9715 43.7247 49.6615 45.4904 50.9202 46.8163C52.1789 48.1421 53.9064 48.9229 55.7333 48.9917C57.5602 49.0604 59.3415 48.4117 60.6963 47.1842C62.0511 45.9567 62.8719 44.2478 62.9831 42.423C63.0944 40.5982 62.4873 38.8023 61.2916 37.4193C60.096 36.0363 58.4067 35.176 56.585 35.0223ZM14.0032 34.9978C12.1468 34.9978 10.3664 35.7352 9.05374 37.0479C7.74106 38.3606 7.00361 40.1409 7.00361 41.9973C7.00361 43.8537 7.74106 45.6341 9.05374 46.9468C10.3664 48.2594 12.1468 48.9969 14.0032 48.9969C15.8596 48.9969 17.6399 48.2594 18.9526 46.9468C20.2653 45.6341 21.0027 43.8537 21.0027 41.9973C21.0027 40.1409 20.2653 38.3606 18.9526 37.0479C17.6399 35.7352 15.8596 34.9978 14.0032 34.9978Z" fill="#0095DA"/>
</svg>
