<svg width="56" height="56" viewBox="0 0 56 56" fill="none" xmlns="http://www.w3.org/2000/svg">
<path d="M0 53C0 53.7957 0.316071 54.5587 0.87868 55.1213C1.44129 55.6839 2.20435 56 3 56H53C53.7957 56 54.5587 55.6839 55.1213 55.1213C55.6839 54.5587 56 53.7957 56 53V18H0V53ZM40 22.5C40 22.3674 40.0527 22.2402 40.1464 22.1464C40.2402 22.0527 40.3674 22 40.5 22H45.5C45.6326 22 45.7598 22.0527 45.8536 22.1464C45.9473 22.2402 46 22.3674 46 22.5V27.5C46 27.6326 45.9473 27.7598 45.8536 27.8536C45.7598 27.9473 45.6326 28 45.5 28H40.5C40.3674 28 40.2402 27.9473 40.1464 27.8536C40.0527 27.7598 40 27.6326 40 27.5V22.5ZM40 32.5C40 32.3674 40.0527 32.2402 40.1464 32.1464C40.2402 32.0527 40.3674 32 40.5 32H45.5C45.6326 32 45.7598 32.0527 45.8536 32.1464C45.9473 32.2402 46 32.3674 46 32.5V37.5C46 37.6326 45.9473 37.7598 45.8536 37.8536C45.7598 37.9473 45.6326 38 45.5 38H40.5C40.3674 38 40.2402 37.9473 40.1464 37.8536C40.0527 37.7598 40 37.6326 40 37.5V32.5ZM30 22.5C30 22.3674 30.0527 22.2402 30.1464 22.1464C30.2402 22.0527 30.3674 22 30.5 22H35.5C35.6326 22 35.7598 22.0527 35.8536 22.1464C35.9473 22.2402 36 22.3674 36 22.5V27.5C36 27.6326 35.9473 27.7598 35.8536 27.8536C35.7598 27.9473 35.6326 28 35.5 28H30.5C30.3674 28 30.2402 27.9473 30.1464 27.8536C30.0527 27.7598 30 27.6326 30 27.5V22.5ZM30 32.5C30 32.3674 30.0527 32.2402 30.1464 32.1464C30.2402 32.0527 30.3674 32 30.5 32H35.5C35.6326 32 35.7598 32.0527 35.8536 32.1464C35.9473 32.2402 36 32.3674 36 32.5V37.5C36 37.6326 35.9473 37.7598 35.8536 37.8536C35.7598 37.9473 35.6326 38 35.5 38H30.5C30.3674 38 30.2402 37.9473 30.1464 37.8536C30.0527 37.7598 30 37.6326 30 37.5V32.5ZM30 42.5C30 42.3674 30.0527 42.2402 30.1464 42.1464C30.2402 42.0527 30.3674 42 30.5 42H35.5C35.6326 42 35.7598 42.0527 35.8536 42.1464C35.9473 42.2402 36 42.3674 36 42.5V47.5C36 47.6326 35.9473 47.7598 35.8536 47.8536C35.7598 47.9473 35.6326 48 35.5 48H30.5C30.3674 48 30.2402 47.9473 30.1464 47.8536C30.0527 47.7598 30 47.6326 30 47.5V42.5ZM20 32.5C20 32.3674 20.0527 32.2402 20.1464 32.1464C20.2402 32.0527 20.3674 32 20.5 32H25.5C25.6326 32 25.7598 32.0527 25.8536 32.1464C25.9473 32.2402 26 32.3674 26 32.5V37.5C26 37.6326 25.9473 37.7598 25.8536 37.8536C25.7598 37.9473 25.6326 38 25.5 38H20.5C20.3674 38 20.2402 37.9473 20.1464 37.8536C20.0527 37.7598 20 37.6326 20 37.5V32.5ZM20 42.5C20 42.3674 20.0527 42.2402 20.1464 42.1464C20.2402 42.0527 20.3674 42 20.5 42H25.5C25.6326 42 25.7598 42.0527 25.8536 42.1464C25.9473 42.2402 26 42.3674 26 42.5V47.5C26 47.6326 25.9473 47.7598 25.8536 47.8536C25.7598 47.9473 25.6326 48 25.5 48H20.5C20.3674 48 20.2402 47.9473 20.1464 47.8536C20.0527 47.7598 20 47.6326 20 47.5V42.5ZM10 32.5C10 32.3674 10.0527 32.2402 10.1464 32.1464C10.2402 32.0527 10.3674 32 10.5 32H15.5C15.6326 32 15.7598 32.0527 15.8536 32.1464C15.9473 32.2402 16 32.3674 16 32.5V37.5C16 37.6326 15.9473 37.7598 15.8536 37.8536C15.7598 37.9473 15.6326 38 15.5 38H10.5C10.3674 38 10.2402 37.9473 10.1464 37.8536C10.0527 37.7598 10 37.6326 10 37.5V32.5ZM10 42.5C10 42.3674 10.0527 42.2402 10.1464 42.1464C10.2402 42.0527 10.3674 42 10.5 42H15.5C15.6326 42 15.7598 42.0527 15.8536 42.1464C15.9473 42.2402 16 42.3674 16 42.5V47.5C16 47.6326 15.9473 47.7598 15.8536 47.8536C15.7598 47.9473 15.6326 48 15.5 48H10.5C10.3674 48 10.2402 47.9473 10.1464 47.8536C10.0527 47.7598 10 47.6326 10 47.5V42.5ZM53 4H46.01V0H40.01V4H15.99V0H9.99V4H3C2.60753 3.9967 2.21829 4.07109 1.85471 4.21889C1.49112 4.36668 1.16037 4.58496 0.881508 4.86115C0.60265 5.13733 0.381197 5.46597 0.229907 5.82812C0.0786172 6.19027 0.000480862 6.57877 0 6.97125V14H56V6.97125C55.9995 6.57877 55.9214 6.19027 55.7701 5.82812C55.6188 5.46597 55.3974 5.13733 55.1185 4.86115C54.8396 4.58496 54.5089 4.36668 54.1453 4.21889C53.7817 4.07109 53.3925 3.9967 53 4Z" fill="#0095DA"/>
</svg>
