<svg width="56" height="56" viewBox="0 0 56 56" fill="none" xmlns="http://www.w3.org/2000/svg">
<path d="M21 0C19.1435 0 17.363 0.737498 16.0503 2.05025C14.7375 3.36301 14 5.14348 14 7V14H7C5.14348 14 3.36301 14.7375 2.05025 16.0503C0.737498 17.363 0 19.1435 0 21V35C0 36.8565 0.737498 38.637 2.05025 39.9497C3.36301 41.2625 5.14348 42 7 42H14V49C14 50.8565 14.7375 52.637 16.0503 53.9497C17.363 55.2625 19.1435 56 21 56H35C36.8565 56 38.637 55.2625 39.9497 53.9497C41.2625 52.637 42 50.8565 42 49V42H49C50.8565 42 52.637 41.2625 53.9497 39.9497C55.2625 38.637 56 36.8565 56 35V21C56 19.1435 55.2625 17.363 53.9497 16.0503C52.637 14.7375 50.8565 14 49 14H42V7C42 5.14348 41.2625 3.36301 39.9497 2.05025C38.637 0.737498 36.8565 0 35 0H21Z" fill="#0095DA"/>
</svg>
