<svg width="56" height="54" viewBox="0 0 56 54" fill="none" xmlns="http://www.w3.org/2000/svg">
<path d="M20.5164 0.000110346C15.7055 -0.0267954 11.0218 4.87006 13.16 10.9508H5.09091C3.74072 10.9508 2.44582 11.5177 1.49109 12.5269C0.536362 13.536 0 14.9047 0 16.3319V21.7131C0 22.4267 0.268181 23.111 0.745546 23.6156C1.22291 24.1202 1.87036 24.4036 2.54545 24.4036H25.4545V16.3319H30.5455V24.4036H53.4545C54.1296 24.4036 54.7771 24.1202 55.2545 23.6156C55.7318 23.111 56 22.4267 56 21.7131V16.3319C56 14.9047 55.4636 13.536 54.5089 12.5269C53.5542 11.5177 52.2593 10.9508 50.9091 10.9508H42.84C45.8182 2.15257 34.6182 -4.06266 29.4509 3.52477L28 5.56961L26.5491 3.47096C24.9455 1.07634 22.7309 0.0270161 20.5164 0.000110346ZM20.3636 5.56961C22.6291 5.56961 23.7745 8.47543 22.1709 10.1705C20.5673 11.8656 17.8182 10.6548 17.8182 8.26018C17.8182 7.5466 18.0864 6.86224 18.5637 6.35766C19.0411 5.85308 19.6885 5.56961 20.3636 5.56961ZM35.6364 5.56961C37.9018 5.56961 39.0473 8.47543 37.4436 10.1705C35.84 11.8656 33.0909 10.6548 33.0909 8.26018C33.0909 7.5466 33.3591 6.86224 33.8365 6.35766C34.3138 5.85308 34.9613 5.56961 35.6364 5.56961ZM2.54545 27.0942V48.6188C2.54545 50.046 3.08182 51.4147 4.03655 52.4239C4.99128 53.4331 6.28617 54 7.63636 54H48.3636C49.7138 54 51.0087 53.4331 51.9635 52.4239C52.9182 51.4147 53.4545 50.046 53.4545 48.6188V27.0942H30.5455V48.6188H25.4545V27.0942H2.54545Z" fill="#0095DA"/>
</svg>
