<svg width="43" height="53" viewBox="0 0 43 53" fill="none" xmlns="http://www.w3.org/2000/svg">
<path d="M21.5 0C15.7998 0.00626242 10.335 2.20198 6.30435 6.10543C2.27371 10.0089 0.00646645 15.3013 0 20.8216C0 38.6383 19.5455 52.0943 20.3786 52.6574C20.7072 52.8804 21.0987 53 21.5 53C21.9013 53 22.2928 52.8804 22.6214 52.6574C23.4545 52.0943 43 38.6383 43 20.8216C42.9935 15.3013 40.7263 10.0089 36.6957 6.10543C32.665 2.20198 27.2002 0.00626242 21.5 0ZM21.5 13.2501C23.0463 13.2501 24.5579 13.6942 25.8435 14.5262C27.1292 15.3581 28.1313 16.5406 28.7231 17.9241C29.3148 19.3077 29.4696 20.83 29.168 22.2988C28.8663 23.7675 28.1217 25.1166 27.0283 26.1755C25.9349 27.2344 24.5418 27.9555 23.0253 28.2477C21.5087 28.5398 19.9367 28.3899 18.5081 27.8168C17.0795 27.2437 15.8585 26.2733 14.9994 25.0281C14.1403 23.783 13.6818 22.3191 13.6818 20.8216C13.6818 18.8135 14.5055 16.8877 15.9717 15.4678C17.4379 14.0478 19.4265 13.2501 21.5 13.2501Z" fill="#0095DA"/>
</svg>
