<svg width="56" height="56" viewBox="0 0 56 56" fill="none" xmlns="http://www.w3.org/2000/svg">
<path d="M17.3753 0.016725C15.6077 -0.149531 13.9627 0.937694 13.5109 2.65494L11.891 8.80968C32.4127 9.41017 46.295 23.0956 47.1635 43.4827L53.3915 41.7567C55.1109 41.2798 56.1796 39.6042 55.975 37.83C53.6912 18.0566 37.2724 1.89476 17.3753 0.016725ZM10.9799 12.2671L0.058438 53.7753C-0.0209575 54.0768 -0.019426 54.394 0.062878 54.6947C0.145182 54.9955 0.305348 55.2692 0.527218 55.4883C0.749088 55.7074 1.02482 55.8641 1.32659 55.9426C1.62836 56.0211 1.9455 56.0187 2.24601 55.9355L43.7005 44.4398C43.2335 25.3106 30.2382 12.4859 10.9799 12.2715V12.2671ZM13.9988 45.5019C13.3065 45.5019 12.6298 45.2966 12.0542 44.912C11.4786 44.5274 11.03 43.9807 10.7651 43.3412C10.5002 42.7016 10.4308 41.9979 10.5659 41.3189C10.7009 40.6399 11.0343 40.0163 11.5238 39.5268C12.0133 39.0373 12.637 38.7039 13.3159 38.5689C13.9949 38.4338 14.6986 38.5031 15.3382 38.7681C15.9778 39.033 16.5244 39.4816 16.909 40.0572C17.2936 40.6328 17.4989 41.3095 17.4989 42.0017C17.4989 42.93 17.1301 43.8203 16.4737 44.4767C15.8173 45.1331 14.927 45.5019 13.9988 45.5019ZM19.2489 28.8763C18.5567 28.8763 17.88 28.671 17.3044 28.2864C16.7288 27.9018 16.2802 27.3552 16.0152 26.7156C15.7503 26.0761 15.681 25.3723 15.8161 24.6933C15.9511 24.0144 16.2845 23.3907 16.774 22.9012C17.2635 22.4117 17.8871 22.0784 18.5661 21.9433C19.245 21.8083 19.9488 21.8776 20.5884 22.1425C21.2279 22.4074 21.7746 22.856 22.1592 23.4316C22.5438 24.0072 22.7491 24.6839 22.7491 25.3762C22.7491 26.3045 22.3803 27.1947 21.7239 27.8511C21.0675 28.5075 20.1772 28.8763 19.2489 28.8763ZM30.6243 40.2517C29.9321 40.2517 29.2553 40.0464 28.6798 39.6618C28.1042 39.2772 27.6555 38.7306 27.3906 38.091C27.1257 37.4514 27.0564 36.7477 27.1915 36.0687C27.3265 35.3898 27.6599 34.7661 28.1494 34.2766C28.6389 33.7871 29.2625 33.4538 29.9415 33.3187C30.6204 33.1837 31.3242 33.253 31.9638 33.5179C32.6033 33.7828 33.15 34.2314 33.5346 34.807C33.9192 35.3826 34.1244 36.0593 34.1244 36.7516C34.1244 37.6799 33.7557 38.5701 33.0993 39.2265C32.4429 39.8829 31.5526 40.2517 30.6243 40.2517Z" fill="#0095DA"/>
</svg>
