<svg width="56" height="66" viewBox="0 0 56 66" fill="none" xmlns="http://www.w3.org/2000/svg">
<path d="M17.0435 30.1538C13.8147 30.1538 10.7183 28.8301 8.43522 26.4739C6.15217 24.1177 4.86956 20.922 4.86956 17.5897V7.53846C4.86956 6.87202 5.12608 6.23288 5.58269 5.76163C6.0393 5.29039 6.6586 5.02564 7.30434 5.02564H9.73913C10.3849 5.02564 11.0042 4.7609 11.4608 4.28965C11.9174 3.81841 12.1739 3.17926 12.1739 2.51282C12.1739 1.84638 11.9174 1.20723 11.4608 0.735988C11.0042 0.264743 10.3849 0 9.73913 0H7.30434C5.36711 0 3.50922 0.794229 2.13939 2.20796C0.769563 3.6217 0 5.53914 0 7.53846V17.5897C0.00312972 20.4286 0.673879 23.2242 1.95464 25.7365C3.2354 28.2488 5.0879 30.4028 7.35304 32.0133C9.52932 33.9935 11.2942 36.4083 12.5413 39.1118C13.7883 41.8154 14.4916 44.7518 14.6087 47.7436C14.6087 52.4087 16.4043 56.8827 19.6006 60.1814C22.7969 63.4801 27.132 65.3333 31.6522 65.3333C36.1724 65.3333 40.5074 63.4801 43.7037 60.1814C46.9 56.8827 48.6956 52.4087 48.6956 47.7436V44.879C50.9908 44.2674 52.991 42.8129 54.3214 40.7881C55.6518 38.7633 56.221 36.3073 55.9224 33.8804C55.6237 31.4534 54.4776 29.2223 52.699 27.605C50.9204 25.9878 48.6313 25.0956 46.2608 25.0956C43.8904 25.0956 41.6013 25.9878 39.8227 27.605C38.0441 29.2223 36.898 31.4534 36.5993 33.8804C36.3007 36.3073 36.8699 38.7633 38.2003 40.7881C39.5306 42.8129 41.5309 44.2674 43.8261 44.879V47.7436C43.8261 51.0758 42.5435 54.2715 40.2604 56.6278C37.9774 58.984 34.8809 60.3077 31.6522 60.3077C28.4234 60.3077 25.327 58.984 23.0439 56.6278C20.7609 54.2715 19.4783 51.0758 19.4783 47.7436C19.6015 44.748 20.3124 41.8094 21.5679 39.1056C22.8234 36.4018 24.5974 33.9891 26.7826 32.0133C29.0387 30.3972 30.8818 28.2408 32.1539 25.7288C33.426 23.2168 34.0893 20.4241 34.0869 17.5897V7.53846C34.0869 5.53914 33.3174 3.6217 31.9475 2.20796C30.5777 0.794229 28.7198 0 26.7826 0H24.3478C23.7021 0 23.0828 0.264743 22.6262 0.735988C22.1696 1.20723 21.913 1.84638 21.913 2.51282C21.913 3.17926 22.1696 3.81841 22.6262 4.28965C23.0828 4.7609 23.7021 5.02564 24.3478 5.02564H26.7826C27.4283 5.02564 28.0476 5.29039 28.5042 5.76163C28.9609 6.23288 29.2174 6.87202 29.2174 7.53846V17.5897C29.2174 19.2397 28.9025 20.8735 28.2907 22.3978C27.6789 23.9222 26.7822 25.3072 25.6517 26.4739C24.5213 27.6406 23.1792 28.5661 21.7022 29.1975C20.2252 29.8289 18.6422 30.1538 17.0435 30.1538ZM46.2608 40.2051C44.9694 40.2051 43.7308 39.6756 42.8175 38.7332C41.9043 37.7907 41.3913 36.5124 41.3913 35.1795C41.3913 33.8466 41.9043 32.5683 42.8175 31.6258C43.7308 30.6833 44.9694 30.1538 46.2608 30.1538C47.5523 30.1538 48.7909 30.6833 49.7041 31.6258C50.6174 32.5683 51.1304 33.8466 51.1304 35.1795C51.1304 36.5124 50.6174 37.7907 49.7041 38.7332C48.7909 39.6756 47.5523 40.2051 46.2608 40.2051Z" fill="#0095DA"/>
</svg>
