<svg width="92" height="46" viewBox="0 0 92 46" fill="none" xmlns="http://www.w3.org/2000/svg">
<path d="M67.7206 0C58.2188 0 50.7869 5.93688 46 11.2988C41.2131 5.93688 33.7812 0 24.2794 0C10.8962 0 0 10.3213 0 23C0 35.6787 10.8962 46 24.2794 46C33.7812 46 41.2131 40.0631 46 34.7012C50.7869 40.0631 58.2188 46 67.7206 46C81.1038 46 92 35.6787 92 23C92 10.3213 81.1038 0 67.7206 0ZM24.2794 32.2C18.5006 32.2 13.8 28.0744 13.8 23C13.8 17.9256 18.5006 13.8 24.2794 13.8C29.7706 13.8 34.8306 18.9894 37.7919 23C34.8594 26.9675 29.7562 32.2 24.2794 32.2ZM67.7206 32.2C62.2294 32.2 57.1694 27.0106 54.2081 23C57.1406 19.0325 62.2438 13.8 67.7206 13.8C73.4994 13.8 78.2 17.9256 78.2 23C78.2 28.0744 73.4994 32.2 67.7206 32.2Z" fill="#0095DA"/>
</svg>
