<svg width="46" height="69" viewBox="0 0 46 69" fill="none" xmlns="http://www.w3.org/2000/svg">
<path fill-rule="evenodd" clip-rule="evenodd" d="M22.9991 0.000782256C28.872 0.000782256 33.708 0.522848 37.4083 1.15465C41.1579 1.7931 43.031 2.11232 44.598 4.06093C46.165 6.00953 46.0794 8.11442 45.9148 12.3242C45.3486 26.7858 42.2607 44.8453 25.4681 46.4414V58.1929H30.1757C30.9364 58.1934 31.6736 58.4599 32.2617 58.9473C32.8499 59.4347 33.2528 60.1129 33.4019 60.8664L34.0273 64.0121H42.7512C43.406 64.0121 44.034 64.2749 44.4971 64.7426C44.9601 65.2103 45.2202 65.8446 45.2202 66.5061C45.2202 67.1675 44.9601 67.8018 44.4971 68.2695C44.034 68.7372 43.406 69 42.7512 69H3.24693C2.5921 69 1.9641 68.7372 1.50107 68.2695C1.03804 67.8018 0.777907 67.1675 0.777907 66.5061C0.777907 65.8446 1.03804 65.2103 1.50107 64.7426C1.9641 64.2749 2.5921 64.0121 3.24693 64.0121H11.9708L12.5963 60.8664C12.7454 60.1129 13.1483 59.4347 13.7364 58.9473C14.3246 58.4599 15.0617 58.1934 15.8225 58.1929H20.5301V46.4414C3.74073 44.8453 0.65281 26.7825 0.0865822 12.3242C-0.081311 8.11442 -0.163611 6.00621 1.40339 4.06093C2.9671 2.11232 4.84027 1.7931 8.58988 1.15465C13.3528 0.36615 18.1726 -0.019809 22.9991 0.000782256ZM26.1331 13.9636L25.8105 13.3783C24.5595 11.1072 23.934 9.97657 22.9991 9.97657C22.0641 9.97657 21.4386 11.1072 20.1877 13.3783L19.8651 13.9636C19.5095 14.6087 19.3318 14.9279 19.0552 15.1407C18.7754 15.3535 18.4297 15.4333 17.7384 15.5896L17.1129 15.7359C14.6834 16.2912 13.4687 16.5672 13.179 17.505C12.8893 18.446 13.7189 19.4236 15.3747 21.3789L15.8027 21.8843C16.2735 22.4397 16.5105 22.7157 16.6158 23.0615C16.7212 23.4073 16.685 23.7764 16.6158 24.518L16.55 25.193C16.2998 27.8033 16.1747 29.1101 16.9286 29.6887C17.6857 30.2673 18.8248 29.7386 21.0996 28.6812L21.6856 28.4085C22.3341 28.1092 22.6567 27.9596 22.9991 27.9596C23.3414 27.9596 23.6641 28.1092 24.3126 28.4085L24.8986 28.6812C27.1734 29.7419 28.3124 30.2673 29.0696 29.6887C29.8267 29.1101 29.6983 27.8033 29.4481 25.193L29.3823 24.518C29.3132 23.7764 29.277 23.4073 29.3823 23.0615C29.4876 22.719 29.7247 22.4397 30.1954 21.8843L30.6234 21.3789C32.2793 19.4236 33.1089 18.446 32.8192 17.505C32.5295 16.5672 31.3147 16.2912 28.8852 15.7359L28.2597 15.5896C27.5684 15.4333 27.2227 15.3568 26.9429 15.1407C26.6664 14.9279 26.4886 14.6087 26.1331 13.9636Z" fill="#0095DA"/>
</svg>
