<svg width="56" height="56" viewBox="0 0 56 56" fill="none" xmlns="http://www.w3.org/2000/svg">
<path d="M29.5508 55.7112C28.5528 56.0963 27.4472 56.0963 26.4492 55.7112C18.6621 52.7214 11.9651 47.4396 7.24273 40.5635C2.52041 33.6873 -0.00502371 25.5403 2.76019e-05 17.1986V5.95501C-0.00233619 5.48329 0.147181 5.02334 0.426462 4.64319C0.705744 4.26304 1.09996 3.98287 1.5508 3.84414C18.8112 -1.28138 37.1888 -1.28138 54.4492 3.84414C54.9 3.98287 55.2943 4.26304 55.5735 4.64319C55.8528 5.02334 56.0023 5.48329 56 5.95501V17.1986C56.005 25.5403 53.4796 33.6873 48.7573 40.5635C44.035 47.4396 37.3379 52.7214 29.5508 55.7112Z" fill="#0095DA"/>
</svg>
