<svg width="56" height="56" viewBox="0 0 56 56" fill="none" xmlns="http://www.w3.org/2000/svg">
<path d="M28 0C43.4644 0 56 12.5356 56 28C56 43.4644 43.4644 56 28 56C12.5356 56 0 43.4644 0 28C0 12.5356 12.5356 0 28 0ZM19.8408 31.9172L19.5608 31.9284C19.3116 31.9582 19.0708 32.0369 18.852 32.1599C18.6333 32.2828 18.4409 32.4477 18.2859 32.6451C18.1309 32.8425 18.0164 33.0685 17.9488 33.3102C17.8812 33.5518 17.8619 33.8045 17.892 34.0536C18.1936 36.5158 19.3836 38.7832 21.2385 40.4302C23.0933 42.0772 25.4856 42.9906 27.9662 42.9988C30.4467 43.0071 32.845 42.1096 34.7108 40.475C36.5766 38.8404 37.7816 36.5809 38.0996 34.1208C38.1421 33.6295 37.9929 33.1408 37.6832 32.757C37.3735 32.3732 36.9273 32.1241 36.4381 32.0618C35.9489 31.9996 35.4546 32.129 35.0586 32.4231C34.6627 32.7171 34.3959 33.1529 34.314 33.6392C34.1171 35.1781 33.3649 36.5922 32.1987 37.6154C31.0326 38.6387 29.5328 39.2008 27.9813 39.196C26.4298 39.1912 24.9335 38.6198 23.7737 37.5893C22.6139 36.5588 21.8705 35.1401 21.6832 33.6C21.6534 33.3508 21.5747 33.11 21.4517 32.8912C21.3288 32.6725 21.1639 32.4801 20.9665 32.3251C20.7691 32.1701 20.5431 32.0556 20.3015 31.988C20.0598 31.9204 19.8071 31.9011 19.558 31.9312L19.8408 31.9172ZM16.2792 17.5812C15.2433 17.5812 14.2498 17.9927 13.5172 18.7252C12.7847 19.4578 12.3732 20.4513 12.3732 21.4872C12.3732 22.5231 12.7847 23.5166 13.5172 24.2492C14.2498 24.9817 15.2433 25.3932 16.2792 25.3932C17.3151 25.3932 18.3086 24.9817 19.0412 24.2492C19.7737 23.5166 20.1852 22.5231 20.1852 21.4872C20.1852 20.4513 19.7737 19.4578 19.0412 18.7252C18.3086 17.9927 17.3151 17.5812 16.2792 17.5812ZM39.7208 17.5812C38.6849 17.5812 37.6914 17.9927 36.9588 18.7252C36.2263 19.4578 35.8148 20.4513 35.8148 21.4872C35.8148 22.5231 36.2263 23.5166 36.9588 24.2492C37.6914 24.9817 38.6849 25.3932 39.7208 25.3932C40.7567 25.3932 41.7502 24.9817 42.4828 24.2492C43.2153 23.5166 43.6268 22.5231 43.6268 21.4872C43.6268 20.4513 43.2153 19.4578 42.4828 18.7252C41.7502 17.9927 40.7567 17.5812 39.7208 17.5812Z" fill="#0095DA"/>
</svg>
