<svg width="56" height="56" viewBox="0 0 56 56" fill="none" xmlns="http://www.w3.org/2000/svg">
<path d="M28 0C43.4644 0 56 12.5356 56 28C56 43.4644 43.4644 56 28 56C12.5356 56 0 43.4644 0 28C0 12.5356 12.5356 0 28 0ZM28 11.2C27.2574 11.2 26.5452 11.495 26.0201 12.0201C25.495 12.5452 25.2 13.2574 25.2 14V28C25.2002 28.7425 25.4953 29.4546 26.0204 29.9796L34.4204 38.3796C34.9485 38.8896 35.6558 39.1719 36.3899 39.1655C37.1241 39.1591 37.8263 38.8646 38.3455 38.3455C38.8646 37.8263 39.1591 37.1241 39.1655 36.3899C39.1719 35.6558 38.8896 34.9485 38.3796 34.4204L30.8 26.8408V14C30.8 13.2574 30.505 12.5452 29.9799 12.0201C29.4548 11.495 28.7426 11.2 28 11.2Z" fill="#0095DA"/>
</svg>
