<svg width="49" height="56" viewBox="0 0 49 56" fill="none" xmlns="http://www.w3.org/2000/svg">
<path d="M4.00149 9.36769L13.3843 0L14.5569 3.51392L18.0765 4.68467L19.2491 8.19694L22.7671 9.36769L23.9397 12.88L27.4576 14.0524L18.0765 23.4184L4.00149 9.36769Z" fill="#0095DA"/>
<path d="M13.9714 5.26922L6.34843 12.88C6.19202 13.0308 5.98254 13.1142 5.7651 13.1123C5.54766 13.1105 5.33965 13.0234 5.18589 12.8699C5.03213 12.7164 4.94492 12.5087 4.94303 12.2916C4.94114 12.0745 5.02473 11.8654 5.17579 11.7092L12.7988 4.09847C12.9552 3.94765 13.1647 3.86419 13.3821 3.86608C13.5996 3.86796 13.8076 3.95504 13.9613 4.10855C14.1151 4.26207 14.2023 4.46973 14.2042 4.68683C14.2061 4.90392 14.1225 5.11306 13.9714 5.26922ZM16.3167 7.61239L8.69371 15.2231C8.5373 15.3739 8.32782 15.4574 8.11038 15.4555C7.89294 15.4536 7.68494 15.3665 7.53118 15.213C7.37742 15.0595 7.2902 14.8519 7.28831 14.6348C7.28642 14.4177 7.37001 14.2085 7.52107 14.0524L15.1441 6.44163C15.3005 6.29081 15.51 6.20736 15.7274 6.20924C15.9448 6.21113 16.1528 6.29821 16.3066 6.45172C16.4604 6.60523 16.5476 6.8129 16.5495 7.02999C16.5514 7.24708 16.4678 7.45623 16.3167 7.61239ZM18.662 9.9539L11.039 17.5646C10.8826 17.7155 10.6731 17.7989 10.4557 17.797C10.2382 17.7951 10.0302 17.7081 9.87646 17.5545C9.7227 17.401 9.63548 17.1934 9.63359 16.9763C9.6317 16.7592 9.71529 16.55 9.86636 16.3939L17.4893 8.78314C17.6458 8.63232 17.8552 8.54886 18.0727 8.55075C18.2901 8.55264 18.4981 8.63971 18.6519 8.79323C18.8056 8.94674 18.8929 9.15441 18.8948 9.3715C18.8966 9.58859 18.8131 9.79774 18.662 9.9539ZM21.0073 12.2954L13.3843 19.9061C13.2279 20.057 13.0184 20.1404 12.8009 20.1385C12.5835 20.1366 12.3755 20.0496 12.2217 19.8961C12.068 19.7425 11.9808 19.5349 11.9789 19.3178C11.977 19.1007 12.0606 18.8915 12.2116 18.7354L19.8346 11.1247C19.991 10.9738 20.2005 10.8904 20.418 10.8923C20.6354 10.8941 20.8434 10.9812 20.9972 11.1347C21.1509 11.2882 21.2381 11.4959 21.24 11.713C21.2419 11.9301 21.1583 12.1392 21.0073 12.2954ZM23.3542 14.6369L15.7312 22.2476C15.5748 22.3985 15.3653 22.4819 15.1479 22.48C14.9304 22.4781 14.7224 22.3911 14.5687 22.2376C14.4149 22.084 14.3277 21.8764 14.3258 21.6593C14.3239 21.4422 14.4075 21.233 14.5586 21.0769L22.1816 13.4662C22.338 13.3153 22.5475 13.2319 22.7649 13.2338C22.9823 13.2357 23.1903 13.3227 23.3441 13.4762C23.4979 13.6298 23.5851 13.8374 23.587 14.0545C23.5889 14.2716 23.5053 14.4808 23.3542 14.6369Z" fill="white"/>
<path d="M47.3958 55.0337C46.7727 55.6526 45.9295 56 45.0506 56C44.1716 56 43.3284 55.6526 42.7053 55.0337L13.3843 25.7616C12.7644 25.1394 12.4165 24.2976 12.4165 23.4201C12.4165 22.5425 12.7644 21.7007 13.3843 21.0785C14.0074 20.4597 14.8506 20.1123 15.7296 20.1123C16.6085 20.1123 17.4517 20.4597 18.0748 21.0785L47.3958 50.3524C48.6862 51.639 48.6862 53.7471 47.3958 55.0337Z" fill="#0095DA"/>
<path d="M19.2491 26.9323C18.626 27.5512 17.7828 27.8986 16.9039 27.8986C16.0249 27.8986 15.1817 27.5512 14.5586 26.9323L0.48357 12.88C0.173841 12.5688 0 12.1479 0 11.7092C0 11.2705 0.173841 10.8496 0.48357 10.5384L2.82885 8.19694C3.14053 7.88771 3.56209 7.71414 4.00149 7.71414C4.4409 7.71414 4.86245 7.88771 5.17413 8.19694L19.2475 22.2476C20.5395 23.536 20.5395 25.644 19.2491 26.9323Z" fill="#0095DA"/>
</svg>
