<svg width="73" height="56" viewBox="0 0 73 56" fill="none" xmlns="http://www.w3.org/2000/svg">
<path d="M41.3865 53.8651C42.0336 53.2173 42.547 52.4474 42.8974 51.5996C43.2477 50.7517 43.4281 49.8427 43.4281 48.9246C43.4281 48.0065 43.2477 47.0974 42.8974 46.2496C42.547 45.4018 42.0336 44.6319 41.3865 43.9841C40.7425 43.332 39.9767 42.8143 39.1331 42.4608C38.2894 42.1073 37.3846 41.925 36.4706 41.9244C35.5566 41.9237 34.6516 42.1047 33.8074 42.457C32.9633 42.8093 32.1967 43.3259 31.5519 43.9771C30.8876 44.6221 30.3577 45.3938 29.9932 46.2469C29.6287 47.1001 29.4368 48.0177 29.4288 48.9463C29.4208 49.8748 29.5967 50.7956 29.9464 51.655C30.2962 52.5144 30.8126 53.2952 31.4656 53.9518C32.1187 54.6084 32.8952 55.1276 33.75 55.4793C34.6048 55.8309 35.5206 56.0078 36.4441 55.9997C37.3676 55.9917 38.2803 55.7988 39.1289 55.4323C39.9774 55.0658 40.7449 54.533 41.3865 53.8651ZM65.9765 26.2534C65.063 26.2551 64.1581 26.0749 63.3141 25.7232C62.4701 25.3716 61.7038 24.8554 61.0592 24.2044C47.5001 10.5716 25.4382 10.5751 11.8756 24.2044C10.571 25.5161 8.80159 26.253 6.95659 26.253C5.11159 26.253 3.34215 25.5161 2.03754 24.2044C0.732924 22.8927 0 21.1137 0 19.2586C0 17.4036 0.732924 15.6246 2.03754 14.3129C21.0217 -4.77096 51.9097 -4.77096 70.8904 14.3129C71.8638 15.2905 72.5269 16.5363 72.7959 17.8929C73.065 19.2495 72.9278 20.6558 72.4018 21.934C71.8758 23.2122 70.9846 24.3048 69.8409 25.0737C68.6971 25.8425 67.3523 26.2531 65.9765 26.2534ZM21.7137 41.0855C20.3384 41.0852 18.9939 40.6749 17.8504 39.9065C16.7069 39.138 15.8157 38.046 15.2894 36.7684C14.7631 35.4908 14.6254 34.0849 14.8936 32.7286C15.1619 31.3723 15.824 30.1264 16.7964 29.1485C27.6396 18.2429 45.2918 18.2429 56.1384 29.1485C57.443 30.4602 58.176 32.2392 58.176 34.0942C58.176 35.9493 57.443 37.7283 56.1384 39.04C54.8338 40.3517 53.0644 41.0886 51.2194 41.0886C49.3744 41.0886 47.6049 40.3517 46.3003 39.04C43.6893 36.4213 40.1519 34.9506 36.464 34.9506C32.776 34.9506 29.2386 36.4213 26.6276 39.04C25.9832 39.6899 25.2172 40.2052 24.3739 40.5563C23.5306 40.9073 22.6265 41.0872 21.7137 41.0855Z" fill="#0095DA"/>
</svg>
